<?xml version="1.0" encoding="UTF-8"?><svg id="Layer_2" xmlns="http://www.w3.org/2000/svg" viewBox="0 0 448.19 129"><defs><style>.cls-1{fill:#1c75bc;}</style></defs><g id="Layer_1-2"><path class="cls-1" d="M60.81,27.2c.56.5,1.11,1.02,1.66,1.53.2.19.41.38.62.58,1.58,1.54,3.97,3.89,4.3,6.18-1.7,1.26-3.51,2.31-5.35,3.35-1.21.68-2.41,1.38-3.61,2.09-.26.16-.52.31-.79.47-.51.3-1.02.61-1.52.92-.23.14-.46.28-.7.42-.21.12-.41.25-.62.37q-.54.27-1.36.27-.38-.47-.8-1.11c-3.15-4.33-8.23-6.09-13.22-6.93-5.8-.65-11.38,1.05-16,4.71-3.88,3.44-6.3,8.47-6.7,13.72-.29,5.93.57,11.71,4.43,16.37,3.81,4.31,9.2,6.74,14.84,7.07,5.46.23,10.49-.54,14.99-3.98.28-.21.56-.42.85-.63,1.72-1.69,2.74-3.66,3.8-5.84h-18.33v-14.65h35.29c0,12.73-1.09,23-9.97,32.32-1.4,1.44-2.84,2.67-4.53,3.73q-.41.27-.84.55c-8.77,5.49-19.87,6.35-29.72,3.88-5.45-1.46-10.56-4.04-14.85-7.81-.26-.23-.53-.46-.8-.69C4.52,77.46.74,68.11.05,58.21c-.36-7.17,1.32-14.21,4.7-20.46.14-.27.29-.54.44-.82,1.53-2.73,3.51-5.05,5.58-7.35.14-.17.29-.33.44-.51,12.35-13.66,36.15-13.6,49.61-1.87Z"/><path class="cls-1" d="M214.29,20.28h15.32v72.1h-15.32c-.09-1.39-.18-2.79-.27-4.22-.38.38-.77.77-1.16,1.16-4.12,3.79-9.57,4.7-14.92,4.51-5.84-.37-10.77-3.19-14.83-7.36-.22-.22-.44-.45-.67-.68-2.87-3.08-4.69-6.82-5.9-10.87q-.14-.46-.28-.94c-1.18-4.85-1.13-10.89.28-15.68.09-.32.19-.65.28-.98,1.24-3.88,3.06-7.27,5.74-10.29.19-.22.38-.44.57-.66,2.36-2.61,5.49-4.57,8.73-5.81.28-.11.55-.22.84-.33,5.34-1.8,11.7-1.3,16.77,1.11,1.66.92,3.21,2.07,4.55,3.45q.14-12.13.27-24.5ZM193.67,57.79c-2.29,2.88-3.17,6.41-2.91,10.09.42,3.52,1.92,6.64,4.62,8.91,3.04,2.03,6.58,2.54,10.12,1.95,2.86-.79,5.53-2.54,7.07-5.16,1.89-3.7,2.27-7.35,1.15-11.41-.91-2.82-2.61-5.19-5.15-6.68-4.9-2.41-11.03-1.86-14.9,2.31Z"/><path class="cls-1" d="M414.81,20.28h15.32v72.1h-15.32c-.09-1.3-.18-2.6-.27-3.94-.37.33-.74.66-1.13,1-4.55,3.73-10.15,4.87-15.85,4.29-6.31-.83-11.58-4.2-15.65-9.19-4.66-6.36-6.5-14.28-5.54-22.17.77-5.33,2.71-10.4,6.16-14.5.16-.21.32-.41.49-.63,3.31-4.1,8.55-7.23,13.73-7.82,5.46-.4,10.67-.19,15.32,3.1q1.22,1.12,2.46,2.25.14-12.13.27-24.5ZM394.19,58.01c-2.53,3.33-2.96,6.92-2.63,11,.52,3.21,2.04,5.88,4.57,7.87,3.07,2.01,6.52,2.5,10.07,1.8,3.12-.87,5.56-2.58,7.25-5.45,1.65-3.52,1.96-7.54.92-11.32-1.04-2.94-3.21-5.46-5.97-6.81-4.93-1.99-10.51-1.16-14.22,2.91Z"/><path class="cls-1" d="M150.25,43.16c.58.52,1.13,1.07,1.68,1.63.09-1.3.18-2.6.27-3.94h15.32v51.54h-15.32c-.09-1.39-.18-2.79-.27-4.22-.38.38-.77.77-1.16,1.16-4.12,3.79-9.57,4.7-14.92,4.51-5.66-.36-10.55-3.08-14.55-7.08-.17-.15-.34-.3-.51-.46-4.25-3.99-6.86-10.9-7.2-16.71-.18-9.2,1.66-16.88,7.93-23.74,2.38-2.33,5.2-4.06,8.26-5.28.29-.12.57-.23.87-.35,6.26-2.13,14.34-1.26,19.62,2.95ZM133.32,56.33c-.17.11-.34.23-.51.35-2.43,1.88-3.51,4.78-4.02,7.77-.52,3.88.47,7.62,2.76,10.76,1.98,2.27,5.01,3.53,7.92,3.72,3.67.09,6.74-.73,9.5-3.32,2.61-2.85,3.37-6.31,3.3-10.11-.22-3.39-1.42-6.23-3.84-8.57-4.41-3.64-10.41-3.84-15.1-.6Z"/><path class="cls-1" d="M272.83,40.56c.29.1.58.2.88.31,6.31,2.48,11.07,7.47,13.9,13.71,1.58,3.78,2.21,7.8,2.25,11.9q0,.34,0,.68c-.01,2.02-.32,3.75-.62,5.8-11.56.09-23.11.19-35.02.28,1.88,3.23,3.51,4.75,6.9,5.83,4.24,1.05,8.51.42,12.25-1.88.59-.44,1.11-.9,1.64-1.41.95.37,1.83.8,2.71,1.32.26.15.51.3.78.45.27.16.54.32.82.48.28.16.55.32.84.49,2.4,1.41,4.79,2.84,7.16,4.3-.59,1.34-1.5,2.3-2.46,3.38-.14.16-.28.33-.42.5-4.18,4.7-10.86,6.8-16.89,7.14-8.48.3-15.94-1.86-22.43-7.63-4.13-3.99-7.05-10.31-7.36-16.13-.15-8.86.96-16.2,7.07-22.94,6.95-7.38,18.61-9.87,28-6.56ZM255.38,57.16c-.97,1.2-1.69,2.35-1.69,3.96h20.79c-.47-2.42-1.65-4.39-3.56-5.91-5.17-3.28-11.39-2.64-15.54,1.95Z"/><path class="cls-1" d="M110.89,39.71v17.74h-4.38c-3.5.5-6.35,1.78-8.56,4.69-2.2,3.25-1.96,7.2-1.97,10.98,0,.56,0,1.11-.01,1.67-.01,1.46-.02,2.91-.03,4.37,0,1.75-.03,3.5-.04,5.26-.02,2.65-.04,5.31-.05,7.96h-15.05v-51.54h15.05c.09,2.42.18,4.83.27,7.32.54-.93,1.08-1.86,1.64-2.82,3.42-4.15,7.96-5.63,13.13-5.63Z"/><path class="cls-1" d="M301.28,76.05h61c-.97,5.51-2.48,10.91-3.83,16.34h-61q.31-2.54.6-3.71c.06-.26.13-.52.2-.79.07-.28.14-.55.21-.83.07-.29.14-.58.22-.87.23-.92.46-1.83.69-2.75.15-.62.31-1.24.46-1.86.15-.59.29-1.18.44-1.77q.1-.42.21-.84c.06-.26.13-.52.2-.78q.09-.34.17-.69c.13-.48.28-.96.43-1.43Z"/><path class="cls-1" d="M308.12,48.16h61c-.97,5.51-2.48,10.91-3.83,16.34h-61c.67-5.56,2.46-10.91,3.83-16.34Z"/><path class="cls-1" d="M314.96,20.28h61c-.96,5.42-2.48,10.72-3.83,16.05h-61c.96-5.42,2.48-10.72,3.83-16.05Z"/><path class="cls-1" d="M179.28,110.13q3.56,0,4.67,1.12c.32.51.63,1.02.93,1.55.17.27.34.54.51.82.53.87,1.05,1.74,1.57,2.62.36.59.71,1.17,1.07,1.76.79,1.29,1.57,2.59,2.33,3.89.46.71.98,1.38,1.5,2.05.09-4.55.18-9.11.27-13.8h2.46v18.31q-3.28,0-4.01-.54-.22-.38-.45-.76c-.18-.28-.35-.57-.54-.86-.18-.31-.35-.62-.54-.94-.29-.48-.59-.96-.88-1.43-.3-.5-.6-1-.9-1.5-.78-1.31-1.61-2.58-2.45-3.85-.85-1.3-1.7-2.61-2.54-3.92-.09,4.55-.18,9.11-.27,13.8h-2.74v-18.31Z"/><path class="cls-1" d="M53.68,111.23c1.93,1.67,3.2,3.63,3.59,6.22.25,3.2-.25,5.97-2.25,8.51-2.04,2.12-4.47,3-7.32,3.04-2.57-.23-5.06-1.07-6.84-3.1-1.79-2.52-2.48-5.06-2.19-8.17.45-2.53,1.56-4.7,3.54-6.3,3.46-2.45,7.92-2.64,11.47-.2ZM43.04,114.35c-1.34,2.14-1.9,4.16-1.45,6.67.52,2.02,1.73,3.43,3.37,4.59,1.72.86,3.59.88,5.41.34,1.78-.81,2.76-1.93,3.61-3.72.85-2.32.65-4.24-.27-6.48-.94-1.8-2.16-2.78-4-3.47-2.46-.52-4.95.12-6.67,2.06Z"/><path class="cls-1" d="M224.84,111.14c.13.13.26.26.39.4,0,1.32-.27,1.58-1.09,2.53-.79-.17-1.39-.43-2.09-.84-1.85-.96-3.53-1.06-5.51-.42-1.66.71-2.59,1.62-3.36,3.28-.85,2.3-.79,4.36.17,6.62.9,1.56,2.26,2.67,3.94,3.2q.99.09,2.03.07c.35,0,.7,0,1.06,0q1.14-.04,2.65-.64c.09-1.58.18-3.16.27-4.79h-4.1v-2.53h6.57v9.29c-3.6,1.65-7.29,2.31-11.09.86-2.13-1.08-3.72-2.88-4.64-5.12-.83-2.71-.76-5.67.32-8.29,1.22-2.31,3.3-4.25,5.78-5.01,3.06-.61,6.03-.26,8.69,1.4Z"/><path class="cls-1" d="M77.51,110.13h2.74c.18.43.36.87.54,1.3.16.39.33.78.49,1.18.46,1.1.92,2.2,1.37,3.3.82,1.97,1.64,3.93,2.46,5.9.31.73.61,1.46.92,2.19.21.51.43,1.01.64,1.52.13.3.25.61.39.92.11.26.22.53.34.8q.24.63.24,1.19h-3.01c-.69-1.4-1.35-2.76-1.91-4.22h-7.93c-.54,1.39-1.08,2.79-1.64,4.22h-3.28c.45-1.5,1.05-2.91,1.67-4.35.11-.26.22-.51.33-.77.35-.82.7-1.63,1.06-2.45.35-.8.69-1.61,1.04-2.41.23-.52.45-1.05.68-1.57.97-2.25,1.93-4.5,2.88-6.75ZM78.61,113.79c-.46,1.11-.91,2.22-1.37,3.33-.13.32-.26.63-.4.96-.12.3-.25.6-.37.92-.11.28-.23.56-.35.84q-.3.72-.25,1.56h5.74c-.54-1.86-1.1-3.61-1.83-5.39-.09-.22-.18-.43-.27-.65-.21-.52-.43-1.04-.64-1.56h-.27Z"/><path class="cls-1" d="M320.18,110.1q.34,0,.68,0c.23,0,.45,0,.68,0,.17,0,.35,0,.53,0,1.78,4.09,3.54,8.18,5.26,12.29.19.44.37.88.56,1.33.26.62.52,1.25.78,1.87.08.19.16.37.24.57.33.8.54,1.37.54,2.25h-3.01c-.22-.49-.45-.97-.67-1.46-.12-.27-.25-.54-.38-.82q-.33-.82-.6-2.22h-8.21c-.27.84-.54,1.67-.82,2.53-.27.66-.54,1.32-.82,1.97h-3.01c.19-.99.34-1.66.72-2.55.09-.21.18-.43.28-.65.1-.23.2-.46.3-.7.1-.24.21-.48.31-.73.33-.78.67-1.55,1-2.33.22-.51.44-1.01.65-1.52.54-1.25,1.07-2.5,1.61-3.74.32-.74.64-1.49.96-2.23.1-.24.2-.47.31-.71.19-.45.38-.89.57-1.34q.77-1.8,1.51-1.83ZM320.43,114.07c-.46,1.11-.91,2.23-1.37,3.34-.13.32-.26.64-.4.96-.12.3-.25.61-.37.92l-.35.85q-.28.65-.25,1.25h6.02c-.9-2.42-1.81-4.83-2.74-7.32h-.55Z"/><path class="cls-1" d="M394.3,110.13h11.49v2.53h-8.75v5.07h8.21v2.53h-8.21v5.63h9.3v2.53h-12.04v-18.31Z"/><path class="cls-1" d="M130.58,110.13h2.46v7.32h9.03v-7.32h2.46v18.31h-2.46v-8.17h-9.03v8.17h-2.46v-18.31Z"/><path class="cls-1" d="M430.13,110.41q.82.62,1.37,1.13c-.41,1.07-1.03,1.58-1.91,2.25-.17-.1-.34-.21-.52-.32q-1.6-.93-3.39-1.13c-1.18.37-1.69.67-2.38,1.73q-.09,1.01.27,1.97c1.09,1.11,2.27,1.51,3.69,1.97q3.05.99,4.02,2.47c.61,1.65.59,3.14.22,4.86-.67,1.43-1.63,2.42-3.01,3.1-2.36.73-4.69.75-6.96-.31-.57-.34-1.05-.63-1.52-1.09-.09-.37-.18-.74-.27-1.13l2.19-1.69c.41.36.82.72,1.23,1.07,1.1.89,2.36.7,3.7.62q.81-.18,1.37-.56c.26-.81.3-1.32.29-2.17,0-.23,0-.46,0-.69,0-.17,0-.35,0-.52-.79-.34-1.58-.64-2.39-.93q-4.62-1.66-5.58-3.67c-.49-1.57-.43-3.22.06-4.78,2.23-3.18,6.18-4.05,9.56-2.17Z"/><path class="cls-1" d="M378.72,110.99l.53.55v.56q-.42.42-.96.88c-.18.15-.36.3-.54.46-.14.12-.28.23-.42.35-.67-.34-1.33-.69-2-1.04-1.14-.42-1.75-.36-2.92-.09q-.32.05-.65.11c-.15.06-.29.12-.44.18-.33,1.01-.36,1.75-.27,2.82,1.01,1.42,2.63,1.78,4.18,2.33,1.6.6,2.85,1.25,3.85,2.73.48,1.56.36,3.37-.11,4.91-1.31,1.82-2.78,2.85-4.96,3.2-2.21.21-4.15-.32-5.97-1.62-.27-.37-.54-.74-.82-1.13.72-.65,1.44-1.3,2.19-1.97l1.2,1.07c1.09.83,2.43.78,3.72.62q.98-.38,1.64-1.13.39-.96.27-1.97c-1.01-1.31-2.05-1.77-3.54-2.27q-3.29-1.13-4.34-2.69c-.57-1.67-.78-3.13-.29-4.84.91-1.6,2.11-2.78,3.85-3.34,2.51-.29,4.66-.15,6.8,1.34Z"/><path class="cls-1" d="M352.44,110.41q.7.62,1.09,1.13c-.39.95-.91,1.55-1.64,2.25-.14-.08-.28-.15-.43-.23-.22-.11-.44-.22-.67-.33-.29-.16-.59-.31-.89-.48-1.3-.47-1.89-.42-3.21-.09-.75.55-1.02.93-1.35,1.81-.02,1.01.15,1.36.8,2.13,1.26.76,2.66,1.2,4.04,1.69,1.55.58,2.47,1.08,3.3,2.59.52,1.71.6,3.15-.12,4.81-.83,1.51-2.02,2.56-3.66,3.03-2.12.46-4.56.42-6.43-.83q-1.14-.97-1.5-1.43v-.56q.48-.42,1.09-.88c.2-.15.41-.3.62-.46.16-.12.32-.23.48-.35.41.36.82.72,1.23,1.07,1.09.89,2.36.74,3.7.62.83-.36,1.21-.63,1.74-1.36.26-.95.27-1.37-.1-2.31-1.3-.95-2.82-1.45-4.31-1.97-1.69-.62-2.67-1.24-3.59-2.89-.5-1.72-.58-3.15.15-4.81.84-1.51,1.98-2.3,3.56-2.86,2.07-.5,4.2-.28,6.1.69Z"/><path class="cls-1" d="M273.22,110.81q1.07.78,1.53,1.29v.84q-.48.39-1.09.76-.3.18-.62.37t-.48.28c-.18-.17-.36-.34-.55-.51-1.35-1.02-2.58-1.57-4.27-1.43-2.01.33-3.31,1.28-4.53,2.94-1.1,1.84-1.01,3.95-.77,6.03.45,1.64,1.11,2.75,2.5,3.68,1.67.94,3.28,1.05,5.16.83.65-.29,1.16-.61,1.72-1.05.5-.38,1-.65,1.56-.93.54.46,1.08.93,1.64,1.41-.47,1.51-1.16,1.98-2.47,2.73-2.64,1.19-5.3,1.1-7.98.16-2.1-.94-3.75-2.71-4.67-4.86-.94-2.59-1.1-5.25-.2-7.89,1.03-2.28,2.39-4.15,4.66-5.16,3.04-1.05,6.01-1.24,8.85.49Z"/><path class="cls-1" d="M24.44,111.54q.55.56.56,1.09c-.47.97-1.28,1.24-2.21,1.73-.23-.22-.46-.44-.7-.67-1.24-1.05-2.48-1.38-4.07-1.29-1.68.25-2.89,1.11-4.07,2.32-1.26,2.07-1.55,3.97-1.28,6.39.47,1.88,1.42,3.19,3.01,4.22,1.52.75,3,.79,4.65.56.64-.29,1.16-.61,1.72-1.05.5-.38,1-.65,1.56-.93.63.46,1.26.93,1.91,1.41-.39,1-.85,1.43-1.73,2.01-.21.14-.42.28-.63.42-2.24,1.32-4.54,1.44-7.04.89-2.59-.78-4.34-2.45-5.76-4.78-1.15-2.43-1.13-5.8-.42-8.39,1.03-2.54,2.78-4.2,5.18-5.35,3.12-1.26,6.67-.69,9.3,1.41Z"/><path class="cls-1" d="M114.73,111.11q.8.7,1.08,1.55-.95.84-1.91,1.69c-.17-.12-.34-.24-.51-.36-1.77-1.18-3.21-1.92-5.34-1.48-1.86.57-2.98,1.36-3.93,3.12-.88,1.96-1.18,3.89-.56,5.99.78,2.01,1.64,3.04,3.5,4,.18.09.36.19.55.28,2,.19,3.82.17,5.47-1.13.18-.28.36-.56.55-.84,1.06.16,1.66.7,2.46,1.41-.48,1.34-1.49,2.17-2.7,2.8-2.46,1.03-4.88,1.03-7.43.3-2.41-1.05-4.08-2.84-5.16-5.28-1.03-3.05-.8-6.15.51-9.08,1.21-1.82,2.61-3.22,4.65-3.94.17-.06.35-.12.53-.19,2.8-.86,5.81-.52,8.24,1.18Z"/><path class="cls-1" d="M289.52,110.13h2.74v15.77h7.93v2.53h-10.67v-18.31Z"/><path class="cls-1" d="M438.61,0h2.19c.41,1.11.82,2.23,1.23,3.34.12.32.23.64.36.96.11.3.22.61.34.92.1.28.21.56.31.85q.23.68.23,1.25h.55c.02-.22.04-.44.07-.66.28-1.39.79-2.64,1.32-3.95.1-.26.21-.52.31-.79.25-.64.51-1.28.76-1.92h1.91v9.58h-1.37c-.09-1.95-.18-3.9-.27-5.91-.72,1.95-1.44,3.9-2.19,5.91h-1.64c-.81-2.14-1.62-4.28-2.46-6.48-.09,2.14-.18,4.28-.27,6.48h-1.37V0Z"/><path class="cls-1" d="M160.67,110.13h2.46v18.31h-2.46v-18.31Z"/><path class="cls-1" d="M430.13,0h7.66v1.13h-3.28v8.45h-1.37V1.13h-3.01V0Z"/></g></svg>